<svg width="300" height="300" fill="none" xmlns="http://www.w3.org/2000/svg"><path fill="#fff" d="M0 0h300v300H0z"/><path d="M283.31 232.24v14.809a6.144 6.144 0 01-6.581 5.715l-22.95-1.645a6.15 6.15 0 01-5.716-6.582l1.472-14.722c0-1.617.174-3.349.52-5.197 1.992-19.485 4.677-47.977 5.629-60.621.953-12.644 2.079-41.656 2.771-59.583v-5.11-9.959a6.24 6.24 0 016.582-5.802l22.95 1.645a6.155 6.155 0 014.226 2.103 6.156 6.156 0 011.49 4.479s0 3.897-1.213 9.873c0 1.558 0 3.291-.606 5.196-2.078 17.84-5.456 46.765-6.322 59.323-.866 12.557-1.732 41.223-2.252 60.622v5.456z" fill="#7A56A4"/><path d="M273.437 231.547v14.722a6.322 6.322 0 01-6.668 5.803l-12.904-.953a6.15 6.15 0 01-5.716-6.582l1.472-14.722c0-1.617.174-3.349.52-5.196 1.992-19.486 4.676-47.978 5.629-60.622.953-12.644 2.079-41.656 2.771-59.583v-5.11-9.959a6.24 6.24 0 016.582-5.802l12.904.952a6.15 6.15 0 015.716 6.582s0 3.897-1.213 9.873c0 1.559-.173 3.291-.519 5.196-2.165 17.84-5.543 46.766-6.409 59.236-.866 12.471-1.732 41.31-2.252 60.622.174 1.819.087 3.897.087 5.543z" fill="#A284BD"/><path d="M292.75 101.556c0 1.559 0 3.291-.606 5.197l-33.515-2.339h-.433v-5.11h.606l33.948 2.252zM249.276 229.815l33.775 2.338v-5.283l-33.602-2.424-.173 5.369z" fill="#7A56A4"/><path d="M150.306 63.753a41.395 41.395 0 00-26.847-16.628A25.114 25.114 0 0095.4 69.295c-1.645 13.943 1.212 31.783 23.989 37.499l30.917-43.041z" fill="#2B3A68"/><path d="M136.017 131.389a15.331 15.331 0 01-20.352-7.361 54.798 54.798 0 003.204-17.321 62.955 62.955 0 00-.952-15.155l22.603 8.66v5.023a148.21 148.21 0 002.771 17.321c1.819 5.715-1.645 6.148-7.274 8.833z" fill="#FAAB77"/><path d="M142.339 117.879a33.438 33.438 0 01-23.123-11.085l21.304-1.385a75.28 75.28 0 001.819 12.47z" fill="#F89A5F"/><path d="M147.275 109.652s-23.729 8.66-34.035-9.7c-11.172-20.091-2.771-36.286 5.456-38.191 16.282-3.638 26.501 1.732 30.051 8.054 3.551 6.322 11.692 35.074-1.472 39.837z" fill="#FAAB77"/><path d="M136.536 99.693s1.299 2.338 7.535 0c0 0 5.283-1.732 4.416-4.504a17.322 17.322 0 00-11.951 4.504z" fill="#fff"/><path d="M128.829 63.666a30.225 30.225 0 01-18.014 31.263c-8.66 3.464-14.116-30.83 3.464-38.365 17.581-7.534 35.334 0 37.846 12.038 2.511 12.038 1.039 14.463 1.039 14.463s-9.18-22.517-24.335-19.4z" fill="#2B3A68"/><path d="M101.116 67.823c-.866-3.031 0-3.897.693-4.157.692-.26 1.991 0 2.771 3.118a10.912 10.912 0 010 5.975 11.342 11.342 0 01-3.464-4.936zM108.131 67.736c2.424-1.905 3.464-1.732 4.07-.953.606.78.606 1.82-1.819 3.811a10.478 10.478 0 01-5.456 2.165 10.65 10.65 0 013.205-5.023zM98.345 70.767c-3.031-.433-3.81 0-3.984 1.213-.173 1.212.433 1.905 3.464 2.338a11.259 11.259 0 005.889-.953 10.74 10.74 0 00-5.37-2.598zM100.163 77.35c-1.385 2.77-1.039 3.723 0 4.156 1.039.433 1.906 0 3.291-2.598a11 11 0 00.953-5.802 10.216 10.216 0 00-4.244 4.243zM110.382 74.492c2.598 1.645 2.772 2.684 2.252 3.464-.52.78-1.559 1.212-4.244 0a11.088 11.088 0 01-3.81-4.504 11.17 11.17 0 015.802 1.04z" fill="#7A56A4"/><path d="M103.021 72.76a1.296 1.296 0 01.781-1.28 1.302 1.302 0 011.817 1.192 1.288 1.288 0 01-.318.945 1.307 1.307 0 01-.894.441 1.388 1.388 0 01-1.386-1.299z" fill="#FCB315"/><path d="M83.016 225.353c-4.07-2.944 8.66-8.66 12.99-14.116 3.291-4.157 6.495-8.66 9.267-12.384 0 0 5.629 5.369 28.838 4.763a99.313 99.313 0 0028.839-2.945l6.409 7.362c4.33 4.936 9.959 11.085 13.596 14.376 1.992 1.385-68.589 25.201-99.94 2.944z" fill="#7A56A4"/><path d="M194.907 225.18c-5.803 5.456-23.989 11.432-39.924 15.935l-6.236 1.732c-3.117.953-8.227 2.598-14.029 4.59l-5.543 1.905a35.252 35.252 0 01-22.863 1.473c-5.976-1.04-11.605 2.684-18.88 0-5.196-1.732-5.542-16.022-5.542-16.022a28.58 28.58 0 0119.399.866 26.941 26.941 0 0017.321 1.213 6.866 6.866 0 002.598-1.213l7.101-3.551c13.337-6.755 41.396-20.871 47.891-24.508 20.612-11.518 25.548-3.897 25.548-3.897s7.188 8.4-6.841 21.477z" fill="#F9A26A"/><path d="M107.871 151.568s-21.997 49.104-33.775 51.009c-11.778 1.905-41.916-14.203-41.916-14.203l3.031-5.716c14.29 1.646 27.886 3.724 31.61 3.378A166.804 166.804 0 0091.07 134.68c1.04-3.291 16.801 16.888 16.801 16.888zM155.069 152.52s23.643 48.671 35.507 49.797c11.865 1.126 41.397-15.675 41.397-15.675l-3.205-5.63c-14.289 2.165-27.799 4.677-31.523 4.504a166.363 166.363 0 01-25.981-50.576c-1.212-3.551-16.195 17.58-16.195 17.58z" fill="#FAAB77"/><path d="M183.908 153.386a32.736 32.736 0 01-16.281 11.778s.779 31.004-1.819 35.421c-4.763 7.967-51.962 11.431-64.865-2.252a153.346 153.346 0 01-1.473-30.051 33.863 33.863 0 01-22.257-12.644 294.423 294.423 0 0116.022-27.886 18.107 18.107 0 014.763-3.031 72.855 72.855 0 0119.486-4.677s-1.819 11.345 13.683 10.826c15.502-.52 11.432-11.519 11.432-11.519s14.462 2.772 17.32 3.898a33.118 33.118 0 019.093 4.59 285.753 285.753 0 0114.896 25.547z" fill="#BA9CC9"/><path d="M36.51 188.46a40.499 40.499 0 01-8.66 3.984c-2.078 0-8.66-.866-8.66-.866s0-1.559 3.724-1.732c3.724-.173 5.715-4.85 7.707-6.149a8.057 8.057 0 017.102-.346l-1.213 5.109z" fill="#FAAB77"/><path d="M35.99 182.571a25.99 25.99 0 00-7.014 0c-1.213 0-2.858 2.079-5.716 2.425-1.04 0 0 .953 0 1.126 2.277.19 4.565.19 6.842 0l5.889-3.551zM27.59 191.318l-8.14 2.512s0-2.252 1.125-2.425l7.015-.087z" fill="#FAAB77"/><path d="M22.048 185.43a10.905 10.905 0 000 3.723c0 .693 2.858 1.04 2.858 1.04l1.558-1.646s-3.117-.519-3.204-.693c-.087-.173 0-2.424-1.212-2.424zM228.941 186.728a39.484 39.484 0 008.661 3.984c2.078 0 9.093-.779 9.093-.779s-.52-1.646-3.811-1.819c-3.291-.173-5.715-4.763-7.707-6.062a8.65 8.65 0 00-7.188-.866l.952 5.542z" fill="#FAAB77"/><path d="M229.374 180.84a26.554 26.554 0 017.102 0 17.317 17.317 0 005.629 2.424c1.039 0 0 .953 0 1.126-2.277.19-4.565.19-6.842 0l-5.889-3.55zM237.775 189.586l7.794 2.425s0-2.252-1.126-2.338c-1.126-.087-6.668-.087-6.668-.087z" fill="#FAAB77"/><path d="M243.404 183.351a11.352 11.352 0 010 3.724c0 .693-2.858 1.039-2.858 1.039l-1.559-1.645s3.118-.52 3.205-.693c.086-.173-.087-2.425 1.212-2.425z" fill="#FAAB77"/><path d="M165.635 187.335c.008.143.008.287 0 .43v-.43z" fill="#FEDCBB"/><path d="M104.58 55.785a28.84 28.84 0 00-17.32-2.165c-11.605 1.386-9.96 18.966-19.573 23.73-9.613 4.762-14.549 18.446-2.425 25.98 12.125 7.534 25.981 4.417 25.375-11.258-.606-15.675-2.338-39.578 12.384-31.09 14.723 8.486 1.559-5.197 1.559-5.197z" fill="#2B3A68"/><path d="M134.718 247.437l-5.543 1.906a35.252 35.252 0 01-22.863 1.472c-5.976-1.039-11.605 2.684-18.88 0-5.196-1.732-5.542-16.022-5.542-16.022a28.58 28.58 0 0119.399.866 26.934 26.934 0 0017.321 1.213 6.851 6.851 0 002.598-1.213l7.101-3.55a55.226 55.226 0 006.409 15.328z" fill="url(#paint0_linear)"/><path d="M184.947 235.313s0 14.289-5.629 16.021c-7.275 2.339-12.904-1.472-18.879 0a35.769 35.769 0 01-22.777-1.558c-3.897-1.386-7.707-2.685-11.085-3.724l-8.66-2.772-6.322-1.732c-15.935-4.503-34.035-10.565-39.838-16.021-14.116-13.164-6.841-21.218-6.841-21.218s4.936-7.621 25.548 3.897c6.755 3.811 36.806 18.966 49.363 25.375l5.629 2.771a6.5 6.5 0 002.598 1.213 27.464 27.464 0 0017.321-1.126 28.575 28.575 0 0119.572-1.126z" fill="#FAAB77"/><path d="M184.947 235.312s0 14.29-5.629 16.022c-7.275 2.338-12.904-1.472-18.879 0a35.77 35.77 0 01-22.777-1.559c-3.897-1.386-7.707-2.685-11.085-3.724A68.562 68.562 0 00140 233.58l5.63 2.772a6.492 6.492 0 002.598 1.212 27.447 27.447 0 0017.32-1.126 28.583 28.583 0 0119.399-1.126z" fill="#2B3A68"/><path opacity=".5" d="M25.252 223.274v23.643a5.111 5.111 0 01-5.023 5.11h-9.7a5.367 5.367 0 01-4.96-3.315 5.37 5.37 0 01-.409-2.055v-23.383a9.697 9.697 0 015.802-8.66 1.208 1.208 0 00.693-1.126v-1.299h7.188v1.732a.954.954 0 00.607 1.04 9.783 9.783 0 015.802 8.313z" fill="#ACD1EF"/><path d="M25.252 223.274v23.643a5.11 5.11 0 01-5.023 5.11h-6.062a5.455 5.455 0 01-5.456-5.37v-23.383a9.7 9.7 0 015.889-8.66.864.864 0 000-.866v-1.645h3.55v1.732a.951.951 0 00.607 1.039 9.79 9.79 0 016.495 8.4z" fill="#ACCBEB"/><path opacity=".3" d="M21.268 223.275v23.642a5.11 5.11 0 01-5.023 5.11h-2.078a5.459 5.459 0 01-5.456-5.37v-23.382a9.698 9.698 0 015.889-8.66 9.867 9.867 0 016.668 8.66z" fill="#CED4EC"/><path d="M25.183 225.236l-20.179.06.041 13.857 20.179-.06-.041-13.857z" fill="#F2F8FC"/><path d="M18.899 210.111H10.93v1.905H18.9v-1.905z" fill="#2B3A68"/><circle cx="16.5" cy="233.5" r="6.5" fill="#D6ABFF" fill-opacity=".5"/><circle cx="16.5" cy="233.5" r="5.132" fill="#9A2EFF" fill-opacity=".2"/><path d="M16.44 231.302c.36 0 .65-.351.65-.783 0-.432-.29-.782-.65-.782-.358 0-.649.35-.649.782 0 .432.29.783.65.783zM18.176 236.162c-.116.018-.283-.066-.403-.078a1.952 1.952 0 00-.432.021 3.336 3.336 0 00-1.58.644 3.537 3.537 0 012.272 0c.51.169 1.67.442 1.86-.494.23-1.194-2.098-.931-2.61-.929l-.153.035c.308.002.609.086.872.244a.945.945 0 01.264.262c.08.133.054.272-.09.295z" fill="#fff"/><path d="M15.193 236.726l.142-.047c.41-.127.768-.464 1.204-.573.318-.079.858-.162 1.26-.116a.228.228 0 00.236-.09c.018-.26-.984-.498-1.367-.563.352-.037.979-.223 1.253-.257-.015.016-.167-.251-.324-.557-.18-.351-.36-.753-.36-.855.008-.268.047-.534.116-.794.09.361.252.656.36 1.124.25 1.08.39 1.001 1.757 1.292.332.07.472.612.594.593.329-.052.144-.501-.053-.664-.298-.248-.31-.207-.667-.349-.098-.039-.85-.383-.88-.492 0 .015 0 .017-.006 0l-.095-.152c-.214-.644-.291-.654-.407-1.324-.047-.275 0-.748-.175-.931l-.014-.012.01-.013c-.42-.241-.712-.36-1.22-.385h-.035a2.24 2.24 0 00-1.02.27.238.238 0 00-.126.053.31.31 0 00-.045.04l-.033.019.008.012c-.18.229-.192.703-.234.949-.116.67-.194.68-.406 1.324l-.1.146c-.009.019-.01.017-.005 0-.032.11-.784.45-.882.492-.36.143-.368.101-.667.35-.2.162-.442.612-.113.665.122.019.319-.523.65-.593 1.368-.293 1.507-.211 1.759-1.297.108-.471.27-.768.36-1.13.043.224.067.451.073.68.014.415-.115.642-.27.982-.107.243-.12.478-.217.613-.841.075-2.625.277-1.942 1.27.495.712 1.237.542 1.881.32z" fill="#F2F7FC"/><defs><linearGradient id="paint0_linear" x1="82" y1="246.5" x2="129.5" y2="245.5" gradientUnits="userSpaceOnUse"><stop stop-color="#2B3A68"/><stop offset="1" stop-color="#2B3A68" stop-opacity=".59"/></linearGradient></defs></svg>