<svg width="300" height="300" fill="none" xmlns="http://www.w3.org/2000/svg"><path fill="#fff" d="M0 0h300v300H0z"/><g clip-path="url(#clip0)"><path d="M124.657 201.613a227.42 227.42 0 00-25.49-6.655c-8.666-1.275-18.04-.51-25.262 4.418-7.222 4.928-11.527 14.784-8.128 22.855 2.832 6.797 9.97 10.649 16.823 13.368 14.67 5.664 30.304 8.808 45.031 14.472a110.135 110.135 0 0014.387 5.013c11.696 2.832 24.101 0 35.09-4.871a93.465 93.465 0 0041.802-37.441c1.643-2.832 8.496-11.329-3.257-16.993-8.241-3.936-25.206 2.011-27.443 2.436a36.97 36.97 0 00-7.959 2.832c-14.16 6.146-29.85 6.939-45.087 5.438-4.248-.34-8.808-1.077-10.507-4.872z" fill="#7A56A4"/><path d="M188.408 222.543a55.17 55.17 0 0127.5-23.592 22.27 22.27 0 018.496 1.473c11.329 4.333 16.115 11.328 16.087 18.862 0 20.391-15.945 36.024-35.034 40.159-14.67 3.172-29.17 8.78-44.209 11.131a181.137 181.137 0 00-28.859 5.919 53.561 53.561 0 00-24.782 15.406c-1.501 1.756-3.228 3.824-5.664 3.626-4.078-1.19.991-9.261 1.558-10.649.566-1.388.481-12.688 1.501-16.058a10.38 10.38 0 011.586-3.512 49.409 49.409 0 016.485-5.41c7.987-5.437 14.303-8.807 21.893-13.056 27.613-15.237 51.261-20.589 53.442-24.299z" fill="#FCCCB9"/><g style="mix-blend-mode:multiply"><path d="M224.291 200.424a22.27 22.27 0 00-8.496-1.473 71.737 71.737 0 00-3.371 1.444 53.81 53.81 0 0026.707 12.83c-1.925-5.154-6.712-9.658-14.84-12.801z" fill="#863089" opacity=".13"/></g><path d="M112.535 222.146a58.536 58.536 0 00-5.919-15.916 22.147 22.147 0 00-12.744-10.479 26.138 26.138 0 00-16.993 2.492 34.221 34.221 0 00-11.697 8.015c-8.015 8.978-7.845 25.489-.368 34.779 8.072 10.139 17.814 16.284 41.236 25.489 21.666 8.496 64.459 14.585 66.47 15.605 2.832 1.387 9.289 6.599 12.291 7.448 1.728.453 6.486-.963 6.797-2.435a21.222 21.222 0 006.146-5.665 27.77 27.77 0 013.03-4.22 12.377 12.377 0 004.645-3.398c1.558-1.869 2.832-5.24.538-6.372a4.19 4.19 0 00-2.124-.312c-15.718.51-21.128-.255-25.631-2.266-2.464-1.104-5.664-4.871-22.657-16.256a368.819 368.819 0 00-37.724-22.657c-2.265-1.02-4.843-2.067-5.296-3.852z" fill="#FDD5C6"/><g style="mix-blend-mode:multiply"><path d="M76.879 198.243a34.221 34.221 0 00-11.697 8.015 23.085 23.085 0 00-2.464 3.342 60.694 60.694 0 0026.509-14.415 31.491 31.491 0 00-12.348 3.058z" fill="#863089" opacity=".13"/></g><path d="M210.159 148.313l13.226 28.321a22.368 22.368 0 0018.21 15.86 17.241 17.241 0 004.645-1.841 3.742 3.742 0 013.908 0c1.105.821 1.133 2.832-.141 3.37a9.65 9.65 0 01-2.039 0 2.382 2.382 0 00-1.478 3.974 2.38 2.38 0 004.083-1.142c.17-.708 0-1.586.652-2.01.651-.425 1.755.198 2.209.991a4.82 4.82 0 01.001 4.295 4.814 4.814 0 01-3.428 2.587c-.312 1.473 2.832 1.473 3.002 3.002.17 1.529-1.926 1.274-3.087.765a2.52 2.52 0 01.538 1.614c-8.496 1.813-17.389-.765-25.489-3.852a52.67 52.67 0 01-12.915-6.514 44.009 44.009 0 01-12.518-16.199 75.654 75.654 0 01-6.853-22.374 16.988 16.988 0 01.424-8.496 9.314 9.314 0 017.865-5.873 9.319 9.319 0 018.76 4.428c-.595.283-1.161.368.425-.906zM136.92 37.01a21.731 21.731 0 00-10.337 14.161 64.337 64.337 0 00-1.19 17.927 6.287 6.287 0 00-7.618 2.578 6.966 6.966 0 001.048 8.128 7.9 7.9 0 008.1 1.897 27.888 27.888 0 0016.737 15.435 22.01 22.01 0 0021.751-5.04 39.656 39.656 0 007.024-11.556c.136-.414.393-.779.736-1.048a2.84 2.84 0 01.991-.311 9.316 9.316 0 007.279-10.026 5.659 5.659 0 00-1.048-2.634 7.51 7.51 0 00-6.287-1.728 49.154 49.154 0 00-2.832-19.173 20.053 20.053 0 00-3.909-7.052 20.415 20.415 0 00-7.222-4.645 28.305 28.305 0 00-5.437-1.727c-6.458-1.275-12.688 2.152-17.786 4.814z" fill="#FDD5C6"/><path d="M131.766 48.622a35.986 35.986 0 003.795-3.115 8.493 8.493 0 002.124-6.996 37.948 37.948 0 0018.89 7.364 8.837 8.837 0 004.928-.567c.736-.368 1.501-.99 2.35-.82.85.169 1.275 1.019 1.728 1.698a10.315 10.315 0 007.165 4.56 47.522 47.522 0 00-1.557-5.24 20.051 20.051 0 00-3.909-7.051 20.414 20.414 0 00-7.222-4.645 28.291 28.291 0 00-5.437-1.728c-6.373-1.16-12.603 2.266-17.701 4.928a21.729 21.729 0 00-10.337 14.16 45.295 45.295 0 00-1.246 9.602c.189.402.407.79.651 1.161a15.98 15.98 0 015.778-13.311z" fill="#863089" opacity=".13"/><path d="M137.203 92.407a83.658 83.658 0 00-1.019 11.328c-.044.6.014 1.203.17 1.784a4.209 4.209 0 001.189 1.7 17.547 17.547 0 006.486 3.851 15.407 15.407 0 0011.017.34 21.176 21.176 0 007.08-5.919 5.102 5.102 0 001.331-2.039 5.058 5.058 0 000-1.954c-.34-3.314-.708-6.627-1.076-9.913a1.742 1.742 0 00-.17-.68c-.425-.792-1.558-.622-2.408-.396a59.243 59.243 0 01-22.6 1.898z" fill="#FDD5C6"/><g style="mix-blend-mode:multiply"><path d="M152.836 103.622a27.323 27.323 0 0010.564-3.144 937.943 937.943 0 00-.991-8.95 1.725 1.725 0 00-.17-.68c-.425-.792-1.558-.622-2.407-.396a59.249 59.249 0 01-22.657 1.955 89.733 89.733 0 00-.821 7.306 27.728 27.728 0 0016.482 3.909z" fill="#863089" opacity=".13"/></g><path d="M174.955 64.709a43.896 43.896 0 001.87-15.322 18.988 18.988 0 00-6.798-13.708 1.816 1.816 0 01-.566-.566c-.283-.538 0-1.161.34-1.728a6.2 6.2 0 00-.793-6.514 10.302 10.302 0 00-4.192-2.662 32.513 32.513 0 00-27.415 1.784 13.774 13.774 0 00-4.333 3.484 11.619 11.619 0 00-2.011 4.843 1.55 1.55 0 01-.368.963 1.585 1.585 0 01-.991.311 10.085 10.085 0 00-7.505 6.09 22.207 22.207 0 00-1.529 9.827 84.44 84.44 0 002.52 17.559 4.334 4.334 0 013.795.963 61.35 61.35 0 01-.283-10.196 20.521 20.521 0 013.059-9.6 59.67 59.67 0 005.182-6.911 17.327 17.327 0 002.011-5.664c7.987 1.104 15.011 4.22 23.054 4.588a6.627 6.627 0 002.832-.368 2.831 2.831 0 001.841-2.238 19.284 19.284 0 004.276 8.1 22.197 22.197 0 012.832 3.2 8.93 8.93 0 01.935 3.427c.198 3.878.198 7.763 0 11.64a3.077 3.077 0 012.237-1.302z" fill="#5E5669"/><path d="M126.611 69.155c1.048 2.464-.255 8.893.481 11.328 3.399 11.952 11.471 18.664 26.622 17.984 16.597-.764 19.202-19.825 19.627-22.402.538-3.68.538-7.42 0-11.102a2.832 2.832 0 00-3.229 1.077 8.08 8.08 0 00-1.189 3.03 17.362 17.362 0 01-5.013 8.496 4.587 4.587 0 01-4.135 1.416 6.397 6.397 0 01-1.642-.963 11.819 11.819 0 00-9.007-2.832 21.577 21.577 0 00-5.805 2.832 6.917 6.917 0 01-6.231.935 7.274 7.274 0 01-2.832-3.002 34.08 34.08 0 01-1.784-3.342 10.17 10.17 0 00-1.955-3.229 3.596 3.596 0 00-3.908-.226z" fill="#5E5669"/><path d="M150.939 78.954a2.238 2.238 0 01-1.699 1.444c-.765.17-1.558.142-2.323.255a2.635 2.635 0 00-2.01 1.048 2.293 2.293 0 00.396 2.69 5.664 5.664 0 002.549 1.36 9.995 9.995 0 005.069.397 5.238 5.238 0 003.88-3.087 1.663 1.663 0 000-1.218c-.283-.737-1.161-.991-1.897-1.133l-2.152-.396a2.833 2.833 0 01-1.615-.709c-.113-.283-.17-.736-.198-.651zM92.144 137.126a12782.146 12782.146 0 01-13.368 31.153 24.548 24.548 0 01-5.664 9.261c-2.265 1.954-10.479 9.516-12.744 10.309a5.654 5.654 0 01-2.634.453 9.06 9.06 0 01-2.55-1.076 3.992 3.992 0 00-4.162 0c-1.162.935-1.133 3.2.255 3.71a9.116 9.116 0 002.152 0 2.839 2.839 0 012.178 1.863 2.834 2.834 0 01-.564 2.81 2.628 2.628 0 01-2.465.705 2.631 2.631 0 01-1.896-1.724c-.199-.765-.142-1.728-.765-2.181-.623-.453-1.87.227-2.322 1.133a5.947 5.947 0 00.396 5.862 5.664 5.664 0 005.183 2.464c.34 1.643-3.087 1.7-3.115 3.399-.029 1.699 2.067 1.331 3.285.764a2.835 2.835 0 00-.51 1.785c9.148 1.841 16.455-5.155 25.064-8.723a53.81 53.81 0 0013.566-7.392 47.502 47.502 0 0012.887-18.012 84.996 84.996 0 006.712-24.753 19.036 19.036 0 00-.652-9.205 10.282 10.282 0 00-8.496-6.344 9.972 9.972 0 00-9.204 5.042c.566-.029 1.16.056-.567-1.303z" fill="#FDD5C6"/><path d="M118.37 205.748a9.747 9.747 0 016.546 8.673 9.739 9.739 0 01-1.355 5.516 9.737 9.737 0 01-4.2 3.824l25.489 15.803a7.054 7.054 0 004.333 1.529 7.319 7.319 0 003.03-1.359 117.27 117.27 0 0134.552-14.982l8.129-18.862c-10.848 3.71-19.995 13.707-31.409 12.829a21.44 21.44 0 017.42-8.269l14.161-10.961a171.92 171.92 0 01-20.674 4.39c-15.351 1.983-30.956-.198-46.107-3.342-1.133 2.492.623 5.579.085 5.211z" fill="#100D17" opacity=".25"/><path d="M136.184 102.914c-2.04-.538-17.843 5.976-25.036 9.318a86.502 86.502 0 00-13 7.42 55.66 55.66 0 00-12.404 15.293l-6.6 10.507a5.185 5.185 0 00-.99 2.549c.059.76.312 1.491.736 2.124a37.316 37.316 0 0012.502 12.973 37.315 37.315 0 0017.122 5.606l1.982-3.71 5.664 31.153a9.605 9.605 0 001.388 4.05 9.117 9.117 0 004.107 2.634 83.883 83.883 0 0052.989 2.832c3.908-1.076 8.156-2.832 9.771-6.57.545-1.432.851-2.944.906-4.475 1.189-12.093 2.832-20.731 3.88-32.824a26.49 26.49 0 002.832 7.93 125.703 125.703 0 0027.613-19.825 5.658 5.658 0 001.728-2.408c.17-.961.072-1.95-.283-2.86-3.427-10.394-7.562-21.071-15.832-28.321-11.328-9.884-26.962-11.187-41.689-14.161-.708 4.135-4.843 8.497-13.707 8.497-10.281-.992-12.631-7.477-13.679-7.732z" fill="#BA9CC9"/><path d="M118.709 200.962c-.339-1.416-.934-2.832-1.359-4.135a38.545 38.545 0 01-1.133-4.418c-.623-2.832-1.048-5.919-1.558-8.893-1.047-6.344-2.18-12.631-3.54-18.89a353.233 353.233 0 01-2.124-10.847c0-.51-.849-.283-.764.226 1.019 6.429 1.755 12.887 2.832 19.315 1.076 6.429 2.039 12.518 3.313 18.721.312 1.614.68 3.2 1.105 4.786.4 1.66 1.039 3.254 1.897 4.73a.796.796 0 001.207-.156.786.786 0 00.124-.439z" fill="#7B57A4"/><path d="M162.862 102.149a10.362 10.362 0 01-5.437 4.843 15.616 15.616 0 01-6.798 1.643 22.27 22.27 0 01-7.646-1.841 11.319 11.319 0 01-3.455-2.266c-.878-.765-1.813-2.266-3.031-2.379a.794.794 0 00-.708.538c-.198 1.416 1.416 2.832 2.351 3.654a41.795 41.795 0 003.597 3.143 15.968 15.968 0 009.147 3.257 13.844 13.844 0 008.723-2.549 15.062 15.062 0 005.07-7.306c.311-1.02-1.36-1.756-1.813-.737z" fill="#9061A8"/><path d="M206.052 217.87c-3.993.991-7.986 2.039-11.98 3.087-3.993 1.048-7.986 2.152-11.895 3.483a197.623 197.623 0 00-22.657 9.375c-4.191 2.039-8.496 4.163-12.376 6.542l-.198.17-1.473-.935a261.453 261.453 0 00-33.334-17.842l-3.03-1.303a4.781 4.781 0 00-.963-1.02c-.482-.453-.992-.849-1.501-1.246a40.524 40.524 0 00-3.059-2.237 78.28 78.28 0 00-6.486-3.852.45.45 0 00-.54.197.451.451 0 00.087.568 85.526 85.526 0 016.118 4.361l1.501 1.218c-3.88-1.586-7.817-3.059-11.782-4.475-.906-.311-1.246 1.077-.368 1.416a322.897 322.897 0 0133.787 16.002 309.493 309.493 0 0131.691 19.825c5.665 4.021 11.131 8.496 16.993 12.15a.651.651 0 00.793-1.02 93.228 93.228 0 00-14.387-12.093c-3.965-2.832-8.043-5.664-12.15-8.327 7.024-3.596 14.161-7.108 21.326-10.167 7.165-3.059 15.152-6.117 22.855-8.808 4.362-1.501 8.78-2.832 13.255-3.851.878-.284.509-1.388-.227-1.218z" fill="#ECB9A5"/><path d="M207.61 214.188a46.338 46.338 0 00-17.163 6.485.567.567 0 00.567.963 61.57 61.57 0 0116.794-6.825c.397-.113.227-.68-.198-.623z" fill="#ECB9A5"/><path d="M188.465 163.153a424.761 424.761 0 01-.255-32.909 76.969 76.969 0 007.816 16.284 25.488 25.488 0 0014.161 10.649 87.07 87.07 0 01-17.191 10.791 1.615 1.615 0 01-1.189.198 1.444 1.444 0 01-.68-.736c-.963-1.87-1.784-3.965-2.662-4.277z" fill="#9061A8"/><path d="M188.266 148.426a25.492 25.492 0 01-8.099 14.982 53.504 53.504 0 01-14.529 9.318c-13.198 6.259-36.648 10.167-38.517 11.611-.793.623-4.107 5.212-2.832 5.381 15.576 2.04 34.523-.991 50.043-3.54a10.474 10.474 0 01-4.531 3.965c-11.329 6.429-36.166 6.939-37.129 12.547-.198 1.019 14.557 2.832 21.977 2.435a110.292 110.292 0 0027.642-3.851 3.827 3.827 0 002.01-1.105c.345-.459.578-.993.68-1.558a123.347 123.347 0 003.285-50.185z" fill="#9061A8"/><path d="M188.068 148.086c0 6.797-.821 13.566-1.019 20.363-.199 6.797-.878 13.396-1.416 20.08-.17 1.897-.312 3.795-.51 5.664l-.34 2.832a7.034 7.034 0 000 2.832.482.482 0 00.85 0 12.5 12.5 0 00.764-4.588c.198-1.699.453-3.398.652-5.097.453-3.427.821-6.826 1.104-10.253.623-6.74 1.133-13.509 1.36-20.306v-11.612a.723.723 0 00-1.445.085z" fill="#7B57A4"/><path d="M224.716 182.836a25.498 25.498 0 00-8.497 5.665c-.226.226 0 .538.369.339a35.667 35.667 0 018.496-5.466c.481-.085.085-.736-.368-.538zM223.98 181.279c-.982.3-1.931.698-2.833 1.189a11.361 11.361 0 00-2.265 1.784c-.284.284 0 .85.453.595a13.505 13.505 0 014.814-2.407c.907-.198.567-1.416-.169-1.161zM85.715 182.412a15.122 15.122 0 00-7.93-4.957.566.566 0 00-.283 1.077c1.473.321 2.9.825 4.248 1.501a19.012 19.012 0 013.823 2.52s.227-.028.142-.141zM83.308 177.823a8.34 8.34 0 00-1.7-1.104 9.237 9.237 0 00-1.925-.708.481.481 0 00-.595.34.509.509 0 00.34.623 9.622 9.622 0 011.756.538c.591.239 1.168.514 1.727.821.312.283.68-.255.397-.51z" fill="#ECB9A5"/></g><circle cx="120.5" cy="153.5" r="6.5" fill="#D6ABFF" fill-opacity=".5"/><circle cx="120.5" cy="153.5" r="5.132" fill="#9A2EFF" fill-opacity=".2"/><path d="M120.441 151.302c.36 0 .65-.351.65-.783 0-.432-.291-.782-.65-.782-.359 0-.65.35-.65.782 0 .432.291.783.65.783zM122.176 156.162c-.116.018-.283-.066-.403-.078a1.954 1.954 0 00-.432.021 3.337 3.337 0 00-1.581.644 3.538 3.538 0 012.273 0c.509.169 1.671.442 1.86-.494.23-1.194-2.098-.931-2.611-.929l-.152.035c.308.002.609.086.872.244a.94.94 0 01.264.262c.079.133.054.272-.09.295z" fill="#fff" fill-opacity=".5"/><path d="M119.193 156.726l.142-.047c.41-.127.768-.464 1.204-.573.318-.079.858-.162 1.26-.116a.229.229 0 00.236-.09c.018-.26-.984-.498-1.367-.563.352-.037.979-.223 1.253-.257-.015.016-.167-.251-.324-.557-.18-.351-.36-.753-.36-.855a3.5 3.5 0 01.116-.794c.09.361.252.656.36 1.124.251 1.08.389 1.001 1.757 1.292.332.07.472.612.594.593.329-.052.144-.501-.053-.664-.298-.248-.309-.207-.667-.349-.098-.039-.849-.383-.881-.492 0 .015 0 .017-.005 0l-.096-.152c-.213-.644-.29-.654-.406-1.324-.047-.275 0-.748-.175-.931l-.013-.012.009-.013c-.42-.241-.712-.36-1.219-.385h-.036c-.357.008-.706.1-1.019.27a.236.236 0 00-.127.053.339.339 0 00-.045.04l-.033.019.008.012c-.18.229-.192.703-.234.949-.116.67-.194.68-.406 1.324l-.1.146c-.009.019-.01.017-.005 0-.032.11-.784.45-.882.492-.36.143-.368.101-.667.35-.2.162-.442.612-.113.665.122.019.319-.523.65-.593 1.368-.293 1.507-.211 1.759-1.297.109-.471.27-.768.36-1.13.043.224.067.451.073.68.014.415-.115.642-.27.982-.107.243-.119.478-.217.613-.841.075-2.625.277-1.942 1.27.495.712 1.237.542 1.881.32z" fill="#F2F7FC" fill-opacity=".5"/><defs><clipPath id="clip0"><path fill="#fff" transform="translate(47 22)" d="M0 0h207v273.583H0z"/></clipPath></defs></svg>