<svg width="300" height="300" fill="none" xmlns="http://www.w3.org/2000/svg"><g clip-path="url(#clip0)"><path fill="#fff" d="M0 0h300v300H0z"/><g clip-path="url(#clip1)"><path d="M143.305 61.606c17.012 0 30.803-13.79 30.803-30.803C174.108 13.791 160.317 0 143.305 0s-30.803 13.791-30.803 30.803 13.791 30.803 30.803 30.803z" fill="#B0B0D8"/><path d="M143.305 56.945c14.438 0 26.142-11.704 26.142-26.142 0-14.437-11.704-26.141-26.142-26.141-14.437 0-26.141 11.704-26.141 26.141 0 14.438 11.704 26.142 26.141 26.142z" fill="url(#paint0_linear)"/><path d="M142.265 53.144a1.076 1.076 0 011.076-1.076 1.077 1.077 0 011.112 1.076 1.11 1.11 0 01-1.532 1.026 1.07 1.07 0 01-.584-.604 1.089 1.089 0 01-.072-.422zm-10.757-2.008a1.104 1.104 0 01-.538-.969 1.003 1.003 0 010-.538 1.068 1.068 0 01.668-.52 1.078 1.078 0 01.838.126 1.112 1.112 0 01.538.932.93.93 0 010 .538 1.157 1.157 0 01-.968.574 1.514 1.514 0 01-.431-.143h-.107zm21.946-.43a1.474 1.474 0 010-.539 1.17 1.17 0 01.148-.55c.094-.17.228-.313.389-.418a1.15 1.15 0 011.507.395 1.16 1.16 0 010 .573 1.043 1.043 0 01-.538.932 1.005 1.005 0 01-.538 0 1.115 1.115 0 01-.861-.394h-.107zm-30.589-8.177a1.353 1.353 0 010-.538 1.081 1.081 0 01.574-.932 1.042 1.042 0 011.47.395c.049.175.049.361 0 .538a1.113 1.113 0 01-.537.968 1.51 1.51 0 01-.538 0 1.148 1.148 0 01-.969-.43zm39.446.395a1.15 1.15 0 01-.574-.968 1.519 1.519 0 010-.538 1.15 1.15 0 011.506-.395 1.151 1.151 0 01.574.968c-.027.19-.088.371-.179.538a1.04 1.04 0 01-.933.538.934.934 0 01-.394-.143zm-42.422-12.085a1.071 1.071 0 01.302-.784 1.084 1.084 0 01.774-.328 1.114 1.114 0 011.112 1.076 1.114 1.114 0 01-1.112 1.112 1.078 1.078 0 01-1.076-1.076zm44.717 0a1.077 1.077 0 011.076-1.076 1.071 1.071 0 011.026.656 1.082 1.082 0 01-.242 1.194 1.078 1.078 0 01-.784.302 1.044 1.044 0 01-1.016-.683 1.042 1.042 0 01-.06-.429v.036zm-41.203-10.256a1.085 1.085 0 01-.538-.932 1.055 1.055 0 010-.574 1.112 1.112 0 011.471-.394 1.147 1.147 0 01.573.968c.033.178.033.36 0 .538a1.107 1.107 0 01-.968.538 1.007 1.007 0 01-.538-.144zm38.334-.466a1.003 1.003 0 010-.538 1.115 1.115 0 01.574-.968 1.148 1.148 0 011.506.395c.033.19.033.384 0 .573a1.108 1.108 0 01-.538.933 1.15 1.15 0 01-.574 0 1.04 1.04 0 01-.968-.395zm-30.552-7.96a.93.93 0 010-.539 1.038 1.038 0 01.538-.932 1.075 1.075 0 011.506.395c.032.178.032.36 0 .537a1.15 1.15 0 01-.574.968c-.177.037-.36.037-.538 0a1.077 1.077 0 01-.932-.43zm22.735.394a1.104 1.104 0 01-.538-.968 1.003 1.003 0 010-.538 1.067 1.067 0 01.668-.52 1.078 1.078 0 01.838.125 1.043 1.043 0 01.538.933.93.93 0 010 .538 1.11 1.11 0 01-.932.573 1.506 1.506 0 01-.574-.322v.179zm-11.726-3.98a1.082 1.082 0 01.327-.774 1.078 1.078 0 01.784-.302 1.042 1.042 0 011.076 1.075 1.07 1.07 0 01-.656 1.027 1.07 1.07 0 01-.42.085 1.114 1.114 0 01-1.111-1.112zM161.952 39.625h-.287l-19.471-8.32V12.48a.75.75 0 011.036-.695.72.72 0 01.434.695v17.93l18.647 7.817a.714.714 0 01.491.83.717.717 0 01-.778.569h-.072z" fill="#7A7BB6"/><path d="M324.216 106.287a28.684 28.684 0 00-26.93-4.948s26.607 1.291 36.72 59.921c0 0 4.016-44.573-9.79-54.973z" fill="url(#paint1_linear)"/><path d="M301.485 252.881h-23.667a4.415 4.415 0 01-4.375-4.375v-14.918c0-1.16.461-2.273 1.282-3.093a4.372 4.372 0 013.093-1.282h23.667a4.381 4.381 0 013.071 1.294 4.379 4.379 0 011.268 3.081v14.918a4.379 4.379 0 01-1.268 3.081 4.381 4.381 0 01-3.071 1.294zm-23.631-20.727a1.434 1.434 0 00-1.434 1.434v14.918a1.434 1.434 0 001.434 1.434h23.667a1.433 1.433 0 001.435-1.434v-14.882a1.47 1.47 0 00-1.435-1.47h-23.667z" fill="#2B2F4A"/><path d="M330.953 241.11l-82.692-.101-.065 53.215 82.692.102.065-53.216z" fill="url(#paint2_linear)"/><path d="M331.989 241.11l-82.692-.101-.029 23.632 82.692.101.029-23.632z" fill="#414874"/><path d="M296.322 259.14l-11.403-.014-.004 3.263 11.403.014.004-3.263z" fill="#636FB1"/><path d="M146.282 75.771a13.698 13.698 0 0113.949 8.857c3.586 9.897 7.172 13.125 7.638 18.324 1.614 21.086 11.583 16.316 8.786 28.437-2.798 12.12-4.698 13.985-4.698 13.985l-23.488-4.626h-23.811a13.625 13.625 0 007.172-14.559c-2.08-9.897-7.172-26.141-4.339-37.186 2.833-11.045 12.659-12.3 18.791-13.232z" fill="#17202E"/><path d="M176.655 216.734h-1.758c-9.61.61-55.653 3.264-62.036.933.121-.501.276-.992.466-1.471a42.1 42.1 0 011.147-2.832c3.012-7.172 6.24-11.44 7.531-14.344a10.984 10.984 0 001.255-4.268 77.332 77.332 0 00-.395-23.487c-1.864-6.563-4.769-10.938-1.757-19.544a70.86 70.86 0 003.586-16.531l9.682-3.837s-.645 23.165 12.479 23.667c13.125.502 12.695-25.101 12.695-25.101l9.897 3.084a83.908 83.908 0 003.622 16.925c1.972 3.586.932 12.587-1.363 17.93a65.715 65.715 0 00-3.586 21.229c.07 1.624.372 3.23.896 4.769 1.901 6.383 6.24 15.169 7.172 18.898.012.227.012.454 0 .681 0 1.112.323 1.865.395 2.331.041.321.065.645.072.968z" fill="#A08EBA"/><path d="M222.16 261.021c-10.758.215-35.859 2.51-46.438-1.435a338.04 338.04 0 00-39.23-10.758 78.068 78.068 0 00-11.941-1.721c-7.172 0-14.631-6.598-19.902-11.009a27.304 27.304 0 00-5.236-3.586 8.356 8.356 0 01-2.797-1.721 2.33 2.33 0 01-.681-1.363c0-1.039 1.183-1.864 4.016-1.864h2.403c4.912.358 10.148 1.649 13.088 1.578 2.941-.072 12.802 8.104 14.703 8.534 2.017.56 4.082.932 6.168 1.112a18.482 18.482 0 0013.913-4.303 95.607 95.607 0 019.144-6.885c8.104-5.451 17.213-10.758 17.392-10.758.358.913.802 1.789 1.327 2.618a10.054 10.054 0 002.008 2.33 6.304 6.304 0 002.905 1.542c.923.18 1.858.3 2.797.359h.717l5.379.287 5.163.287c7.818.466 16.532 1.362 20.512 3.837a98.206 98.206 0 015.953 4.052c5.307 3.944 10.435 8.714 11.439 12.694.05.417.05.838 0 1.255.323 5.558-1.972 14.703-12.802 14.918z" fill="#7A56A4"/><path d="M176.834 216.77a12.98 12.98 0 001.291 2.582 10.08 10.08 0 002.008 2.331 6.306 6.306 0 002.904 1.542c1.184.221 2.383.353 3.586.394l-29.046 15.671-38.011-.932-14.846-2.403-2.832-.43s-7.388-5.128-9.073-6.204h3.192c0-1.04 1.183-1.865 4.016-1.865h2.402c2.69-2.761 10.758-9.682 10.758-9.682l63.471-1.219.18.215z" fill="#7A56A4"/><path d="M197.094 224.193a56.929 56.929 0 00-19.902 11.224l-13.59 2.439 22.232-14.344h.718l5.379.287 5.163.394z" fill="#BA9CC9"/><path d="M193.329 223.727l-1.398.359a35.866 35.866 0 00-12.659 6.813c-4.59 3.98-17.392 7.817-21.766 10.327-1.973 1.112-10.758 4.196-21.014 7.639-12.156 4.159-26.142 8.857-32.489 11.51-11.654 4.877-39.983 2.618-44.358.825-3.191-1.291-5.666-7.172-6.275-12.013a13.158 13.158 0 010-4.948 19.686 19.686 0 019.323-9.754 31.651 31.651 0 019.395-3.945 126.24 126.24 0 0118.504-1.147h5.486c1.941.054 3.871-.3 5.666-1.04l2.582.932 16.711 6.168c7.171 5.666 15.634 2.941 19.22 2.331 7.172-1.255 7.172-3.586 9.646-7.172 2.475-3.586 4.483-2.654 9.324-2.905h2.295a13.97 13.97 0 002.223-.394 23.2 23.2 0 0012.91-6.957 3.303 3.303 0 011.362-1.004 7.47 7.47 0 011.721-.609h.431a26.036 26.036 0 018.821-.287c3.12.071 8.212 4.159 4.339 5.271z" fill="#431A74"/><path d="M149.545 244.203l-13.053 4.626c-12.156 4.159-26.142 8.857-32.489 11.51a44.876 44.876 0 01-13.16 2.618c-1.614 0-3.228.215-4.841.251h-.323c-6.273.16-12.55-.091-18.79-.753a33.502 33.502 0 01-7.172-1.327c-3.192-1.291-5.666-7.172-6.276-12.013a13.947 13.947 0 010-4.948 19.684 19.684 0 019.252-9.682 31.651 31.651 0 019.395-3.945 126.24 126.24 0 0118.504-1.147h5.486c1.941.054 3.871-.3 5.666-1.04l2.582.932 16.711 6.168a19.726 19.726 0 0016.997 2.761l2.223-.43a22.046 22.046 0 003.299-.825l5.989 7.244z" fill="#7A56A4"/><path d="M218.359 226.632s-25.855-19.544-28.688-24.313c-2.832-4.77-14.343-36.684-15.849-38.872a1.55 1.55 0 00-.682-.502c-3.586-1.865-19.794-2.797-19.794-2.797l-32.919 3.335a1.592 1.592 0 01-.179.323c-1.04 1.936-6.491 12.084-7.71 15.061-1.219 2.976-8.32 21.515-10.005 24.277-1.685 2.761-36.792 28.687-37.617 29.117-.824.431-7.458-2.581-6.096-4.446 1.363-1.865 26.967-27.791 30.086-30.911 3.12-3.12 14.775-29.476 15.492-32.596.717-3.12 2.94-19.042 8.534-23.345a59.67 59.67 0 0111.081-5.952h.358c3.407-1.435 6.634-2.546 9.396-3.586h.287c3.048-1.112 5.343-1.722 5.343-1.722l14.343-.932s3.586.646 5.594 1.255c3.299.933 7.746 2.259 9.754 3.048l.682.251c3.801 1.471 10.757 4.16 11.905 7.172a107.14 107.14 0 014.984 17.392c.825 6.024 8.965 26.644 10.292 29.871 1.327 3.227 5.235 7.602 7.495 11.367a230.72 230.72 0 0019.148 22.807c1.937.717-5.235 4.698-5.235 4.698z" fill="#8F503B"/><path d="M165.179 237.676s27.648-4.984 34.103-2.151c6.454 2.833 11.224 9.252 17.571 8.642 6.347-.61 0-3.586-4.447-4.734-4.446-1.147-8.032-6.669-20.045-6.275-6.732.158-13.432.963-20.01 2.403 0 0-5.379 1.398-7.172 2.115z" fill="#541998"/><path d="M107.912 236.242l-9.79-1.757a17.497 17.497 0 00-7.53-5.092h5.486c1.941.054 3.871-.3 5.666-1.04h2.331l.538 1.076 3.299 6.813z" fill="#BA9CC9"/><path d="M103.609 235.094a14.794 14.794 0 00-4.41-2.868c-2.009-.61-5.272-3.586-1.579-4.662 4.626-1.183 13.053 1.757 15.348 1.721a18.32 18.32 0 019.682 3.227c3.228 2.295 7.172 5.595 9.718 5.523 0 0 0 .609-1.829.538-1.828-.072-26.034-2.726-26.034-2.726l-.896-.753z" fill="#431A74"/><path d="M144.811 236.17s-4.697 4.124-22.806 2.367c-18.109-1.757-27.074-4.734-36.54-.968-9.468 3.765-8.213 4.805-13.018 4.805-4.805 0 3.012-5.917 13.232-7.674 10.22-1.757 35.501 3.12 38.406 3.12 2.904 0 14.236 1.111 20.726-1.65z" fill="#541998"/><path d="M173.248 162.945a21.918 21.918 0 01-1.578 4.913 61.804 61.804 0 00-3.586 21.229c.07 1.624.372 3.23.897 4.769-22.879-7.172-45.649 1.937-45.649 1.937a85.792 85.792 0 00-.467-24.528c-.753-2.69-1.721-5.056-2.366-7.459a19.404 19.404 0 01.609-12.121 70.279 70.279 0 003.156-16.674h.359c3.406-1.435 6.634-2.546 9.395-3.586h.287c0 4.339.932 23.452 12.515 23.882 11.582.431 12.765-20.691 12.837-25.101 3.299.932 7.746 2.259 9.754 3.048l.681.251a83.279 83.279 0 002.977 16.423 25.106 25.106 0 01.179 13.017zM234.998 244.776a9.063 9.063 0 01-3.586-1.219c-3.335-1.9-7.674-11.331-7.746-11.475 5.2 3.945 10.364 8.714 11.332 12.694z" fill="#BA9CC9"/><path d="M243.748 240.258c0-1.936-7.172-6.347-5.989-7.423 1.183-1.076 1.434-5.092 1.434-6.06s-1.183-2.08-2.402-3.335-7.423 0-8.642 0a17.539 17.539 0 01-4.232-1.757s-6.885 3.909-6.132 4.482a90.542 90.542 0 019.611 10.579 18.18 18.18 0 007.172 5.451c2.904 1.613 2.689-.538 2.689-.538a8.468 8.468 0 002.008.932 1.476 1.476 0 001.492-.251 1.477 1.477 0 00.48-1.434s2.582 1.255 2.511-.646zm-8.607-9.359a7.82 7.82 0 01-3.263-3.837c0-.789 3.586-1.578 4.303 0 .717 1.578-1.04 3.837-1.04 3.837z" fill="#8F503B"/><path d="M62.693 234.485c0 .179-3.837 10.758-9.144 14.344h-.18a13.163 13.163 0 010-4.949 19.687 19.687 0 019.324-9.395z" fill="#BA9CC9"/><path d="M41.429 247a1.504 1.504 0 002.008 1.685 8.371 8.371 0 001.972-.932s0 2.151 2.69.538a17.14 17.14 0 007.171-5.451 90.543 90.543 0 019.61-10.758c.79-.574-6.095-4.446-6.095-4.446a18.871 18.871 0 01-4.268 1.757c-1.219 0-7.423-1.255-8.606 0-1.183 1.255-2.438 2.331-2.438 3.299s0 4.948 1.434 6.06c1.434 1.112-5.88 5.487-5.953 7.423-.071 1.936 2.475.825 2.475.825zm5.235-14.021c.574-1.578 4.34-.753 4.303 0a7.573 7.573 0 01-3.406 3.837s-1.47-2.331-.897-3.837z" fill="#8F503B"/><path d="M152.736 248.291a223.507 223.507 0 01-61.893 14.523c-1.614 0-3.227.215-4.841.251h-.323a121.738 121.738 0 01-18.79-.753s52.892-19.042 71.36-24.385a54.68 54.68 0 015.451-1.362l5.845 7.494 3.191 4.232z" fill="#6D3DA4"/><path d="M147.644 81.58s13.591 1.937 11.583 22.018c-2.008 20.081-13.985 18.467-14.774 18.432-.789-.036-12.049.43-13.017-24.062 0 0-.431-18.073 16.208-16.388z" fill="#8F503B"/><path d="M153.669 118.48s-.825 10.435 1.183 13.554c2.008 3.12-1.721 7.387-9.395 5.917-7.674-1.47-7.172-5.809-7.172-5.809a31.483 31.483 0 001.506-11.583c-.681-5.163 13.878-2.079 13.878-2.079z" fill="#8F503B"/><path d="M146.066 88.86s6.347 6.67 9.324 10.04a19.403 19.403 0 013.335 10.077 15.596 15.596 0 002.904-13.125c-2.08-7.172-6.992-20.834-19.435-16.603-12.444 4.232-12.91 22.807-11.44 32.023-.071-.179 5.523-20.512 15.312-22.412z" fill="#17202E"/><path d="M140.795 121.133a11.946 11.946 0 0011.367-1.398 7.423 7.423 0 01-5.737 3.586 5.708 5.708 0 01-5.63-2.188z" fill="#64312A"/><path d="M170.092 133.182s10.758 3.012 12.264 6.813a116.388 116.388 0 015.989 20.117l-15.958 4.052-2.295-30.982zM124.12 135.011s-11.152 2.618-14.666 8.893a71.735 71.735 0 00-5.415 17.93l17.5 2.366 2.581-29.189zM176.655 216.734h-1.758l-62.036.933c.121-.501.276-.992.466-1.47a42.131 42.131 0 011.147-2.833l61.499-.646c.012.227.012.455 0 .682 0 1.111.323 1.864.395 2.33.115.329.21.664.287 1.004z" fill="#BA9CC9"/><path d="M138.751 124.755s-18.683 16.495-13.842 27.038c4.124 8.857 18.827 3.586 16.388-5.881a105.436 105.436 0 01-2.546-21.157z" fill="#17202E"/><circle cx="291.5" cy="277.5" r="6.5" fill="#D6ABFF" fill-opacity=".2"/><circle cx="291.5" cy="277.5" r="5.132" fill="#9A2EFF" fill-opacity=".2"/><path d="M291.441 275.302c.36 0 .65-.351.65-.783 0-.432-.291-.782-.65-.782-.359 0-.65.35-.65.782 0 .432.291.783.65.783zM293.176 280.162c-.116.018-.283-.066-.403-.078a1.954 1.954 0 00-.432.021 3.337 3.337 0 00-1.581.644 3.538 3.538 0 012.273 0c.509.169 1.671.442 1.86-.494.23-1.194-2.098-.931-2.611-.929l-.152.035c.308.002.609.086.872.244a.94.94 0 01.264.262c.079.133.054.272-.09.295z" fill="#7D7F93"/><path d="M290.193 280.726l.142-.047c.41-.127.768-.464 1.204-.573.318-.079.858-.162 1.26-.116a.229.229 0 00.236-.09c.018-.261-.984-.498-1.367-.563.352-.037.979-.223 1.253-.257-.015.016-.167-.251-.324-.558-.18-.35-.36-.752-.36-.854a3.5 3.5 0 01.116-.794c.09.36.253.656.36 1.124.251 1.08.389 1.001 1.757 1.292.332.07.472.612.594.593.329-.052.144-.501-.053-.664-.298-.248-.309-.207-.667-.349-.098-.039-.849-.383-.881-.492 0 .015 0 .017-.005 0l-.096-.152c-.213-.644-.29-.654-.406-1.324-.047-.275 0-.749-.175-.931l-.013-.012.009-.013c-.42-.241-.712-.36-1.219-.385h-.036c-.356.008-.706.1-1.019.27a.243.243 0 00-.127.052.347.347 0 00-.045.041l-.033.019.008.012c-.18.229-.192.703-.234.949-.116.67-.194.68-.406 1.324l-.1.146c-.009.019-.01.017-.005 0-.032.11-.783.45-.882.492-.36.142-.368.101-.667.35-.2.162-.442.612-.113.665.122.019.319-.523.65-.593 1.368-.293 1.507-.211 1.759-1.297.109-.471.27-.768.36-1.13.043.224.067.451.073.679.014.416-.115.643-.27.983-.107.243-.119.478-.217.613-.841.075-2.625.277-1.942 1.27.495.712 1.237.542 1.881.32z" fill="#7D7F93"/></g></g><defs><linearGradient id="paint0_linear" x1="2683.22" y1="279.67" x2="3059.65" y2="1122.47" gradientUnits="userSpaceOnUse"><stop stop-color="#fff"/><stop offset="1" stop-color="#CFD0D0"/></linearGradient><linearGradient id="paint1_linear" x1="3525.79" y1="3352.76" x2="3913.33" y2="3352.76" gradientUnits="userSpaceOnUse"><stop stop-color="#698137"/><stop offset="1" stop-color="#9DB93B"/></linearGradient><linearGradient id="paint2_linear" x1="277.352" y1="243.198" x2="315.147" y2="318.718" gradientUnits="userSpaceOnUse"><stop stop-color="#2B2F4A"/><stop offset="1" stop-color="#495081"/></linearGradient><clipPath id="clip0"><path fill="#fff" d="M0 0h300v300H0z"/></clipPath><clipPath id="clip1"><path fill="#fff" transform="translate(-38)" d="M0 0h416.543v300H0z"/></clipPath></defs></svg>